<svg width="1090" height="509" viewBox="0 0 1090 509" fill="none" xmlns="http://www.w3.org/2000/svg">
<g clip-path="url(#clip0_101_136)">
<rect y="0.708984" width="1090" height="508" rx="8" fill="black"/>
<path d="M133.741 450.456C187.082 503.797 220.337 567.094 231.002 626.292C241.667 685.492 229.736 740.542 192.784 777.493C155.833 814.445 100.783 826.376 41.5826 815.711C-17.6151 805.046 -80.9116 771.791 -134.253 718.45C-187.594 665.109 -220.849 601.812 -231.514 542.614C-242.179 483.414 -230.248 428.364 -193.296 391.413C-156.345 354.461 -101.295 342.53 -42.0947 353.195C17.1031 363.86 80.3996 397.115 133.741 450.456Z" stroke="white"/>
<path d="M165.741 418.456C219.082 471.797 252.337 535.094 263.002 594.292C273.667 653.492 261.736 708.542 224.784 745.493C187.833 782.445 132.783 794.376 73.5826 783.711C14.3849 773.046 -48.9116 739.791 -102.253 686.45C-155.594 633.109 -188.849 569.812 -199.514 510.614C-210.179 451.414 -198.248 396.364 -161.296 359.413C-124.345 322.461 -69.2946 310.53 -10.0947 321.195C49.1031 331.86 112.4 365.115 165.741 418.456Z" stroke="white"/>
<path d="M197.741 386.456C251.082 439.797 284.337 503.094 295.002 562.292C305.667 621.492 293.736 676.542 256.784 713.493C219.833 750.445 164.783 762.376 105.583 751.711C46.3849 741.046 -16.9116 707.791 -70.2527 654.45C-123.594 601.109 -156.849 537.812 -167.514 478.614C-178.179 419.414 -166.248 364.364 -129.296 327.413C-92.3446 290.461 -37.2946 278.53 21.9053 289.195C81.1031 299.86 144.4 333.115 197.741 386.456Z" stroke="white"/>
<path d="M1191.74 10.4564C1245.08 63.7975 1278.34 127.094 1289 186.292C1299.67 245.492 1287.74 300.542 1250.78 337.493C1213.83 374.445 1158.78 386.376 1099.58 375.711C1040.38 365.046 977.088 331.791 923.747 278.45C870.406 225.109 837.151 161.812 826.486 102.614C815.821 43.4145 827.752 -11.6355 864.704 -48.5871C901.655 -85.5386 956.705 -97.4698 1015.91 -86.8048C1075.1 -76.1403 1138.4 -42.8848 1191.74 10.4564Z" stroke="white"/>
<path d="M1223.74 -21.5436C1277.08 31.7975 1310.34 95.094 1321 154.292C1331.67 213.492 1319.74 268.542 1282.78 305.493C1245.83 342.445 1190.78 354.376 1131.58 343.711C1072.38 333.046 1009.09 299.791 955.747 246.45C902.406 193.109 869.151 129.812 858.486 70.6144C847.821 11.4145 859.752 -43.6355 896.704 -80.5871C933.655 -117.539 988.705 -129.47 1047.91 -118.805C1107.1 -108.14 1170.4 -74.8848 1223.74 -21.5436Z" stroke="white"/>
<path d="M1255.74 -53.5436C1309.08 -0.202534 1342.34 63.094 1353 122.292C1363.67 181.492 1351.74 236.542 1314.78 273.493C1277.83 310.445 1222.78 322.376 1163.58 311.711C1104.38 301.046 1041.09 267.791 987.747 214.45C934.406 161.109 901.151 97.8122 890.486 38.6144C879.821 -20.5855 891.752 -75.6355 928.704 -112.587C965.655 -149.539 1020.71 -161.47 1079.91 -150.805C1139.1 -140.14 1202.4 -106.885 1255.74 -53.5436Z" stroke="white"/>
<g filter="url(#filter0_f_101_136)">
<ellipse cx="140.33" cy="74.036" rx="140.33" ry="74.036" transform="matrix(0.767494 0.641056 0.641056 -0.767494 779.771 213.353)" fill="#FDE598"/>
</g>
<g filter="url(#filter1_f_101_136)">
<ellipse cx="137.426" cy="74.036" rx="137.426" ry="74.036" transform="matrix(0.767494 0.641056 0.641056 -0.767494 756.511 291.02)" fill="#FF5555"/>
</g>
<path d="M681 34.709L682.505 64.6379L711.434 56.8204L683.435 67.5001L699.809 92.5975L681 69.269L662.191 92.5975L678.565 67.5001L650.566 56.8204L679.495 64.6379L681 34.709Z" fill="white"/>
<path d="M462.912 355.68L447.838 372.35L467.325 383.546L446.813 374.361L442.187 396.355L444.584 374.008L422.237 376.405L444.23 371.778L435.045 351.266L446.242 370.754L462.912 355.68Z" fill="white"/>
</g>
<defs>
<filter id="filter0_f_101_136" x="714.055" y="36.9197" width="441.76" height="419.141" filterUnits="userSpaceOnUse" color-interpolation-filters="sRGB">
<feFlood flood-opacity="0" result="BackgroundImageFix"/>
<feBlend mode="normal" in="SourceGraphic" in2="BackgroundImageFix" result="shape"/>
<feGaussianBlur stdDeviation="51.5773" result="effect1_foregroundBlur_101_136"/>
</filter>
<filter id="filter1_f_101_136" x="690.603" y="114.296" width="437.687" height="416.001" filterUnits="userSpaceOnUse" color-interpolation-filters="sRGB">
<feFlood flood-opacity="0" result="BackgroundImageFix"/>
<feBlend mode="normal" in="SourceGraphic" in2="BackgroundImageFix" result="shape"/>
<feGaussianBlur stdDeviation="51.5773" result="effect1_foregroundBlur_101_136"/>
</filter>
<clipPath id="clip0_101_136">
<rect y="0.708984" width="1090" height="508" rx="8" fill="white"/>
</clipPath>
</defs>
</svg>
