<svg width="569" height="427" viewBox="0 0 569 427" fill="none" xmlns="http://www.w3.org/2000/svg">
<path d="M313.141 245.232C313.151 240.821 316.729 237.25 321.141 237.25H561C565.418 237.25 569 240.832 569 245.25V300.24C569 304.662 565.412 308.246 560.99 308.24L321.008 307.935C316.586 307.929 313.008 304.338 313.018 299.917L313.141 245.232Z" fill="#FF5555"/>
<g filter="url(#filter0_f_101_98)">
<path d="M333.74 275.653L369.882 238.376L385.356 253.453L344.417 295.466L333.74 275.653Z" fill="black"/>
</g>
<path d="M412.808 252.242L413.792 271.801L432.697 266.692L414.399 273.672L425.1 290.073L412.808 274.828L400.516 290.073L411.217 273.672L392.919 266.692L411.825 271.801L412.808 252.242Z" fill="black"/>
<rect x="449.406" y="237.211" width="1.30704" height="71.2338" fill="black"/>
<rect x="374.904" y="237.211" width="1.30704" height="71.2338" fill="black"/>
<path d="M294.795 238.089C293.998 235.33 294.742 232.355 296.744 230.295L505.514 15.4545C508.596 12.2827 513.667 12.2136 516.835 15.3001L556.69 54.1361C559.854 57.2196 559.92 62.2845 556.836 65.4489L325.839 302.506C321.557 306.901 314.126 305.038 312.423 299.143L294.795 238.089Z" fill="#FF5555"/>
<path d="M348.523 233.573L345.659 230.782L344.725 229.97L344.815 229.878L346.02 230.411L349.697 231.695L351.191 230.161L349.813 226.519L349.249 225.328L349.339 225.236L350.183 226.14L353.047 228.931L354.279 227.668L348.634 222.167L346.959 223.886L348.491 227.875L349.313 229.678L349.223 229.771L347.383 229.013L343.314 227.626L341.647 229.336L347.292 234.837L348.523 233.573ZM356.273 225.789C357.184 224.854 357.363 223.879 356.895 223.044L356.961 222.977L357.929 223.921L359.079 222.742L356.602 220.328C355.498 219.253 354.125 219.212 352.754 220.619C351.399 222.009 351.27 223.591 352.315 224.609L352.34 224.634L353.58 223.362L353.546 223.329C353.066 222.861 353.152 222.436 353.776 221.795C354.433 221.121 354.822 221.025 355.37 221.558L355.53 221.714L353.95 223.706C353.164 224.698 353.1 225.539 353.724 226.147C354.432 226.836 355.386 226.699 356.273 225.789ZM354.879 224.792C354.677 224.595 354.724 224.379 354.995 224.051L356.255 222.421C356.82 223.037 356.571 223.698 355.733 224.557C355.372 224.928 355.107 225.014 354.879 224.792ZM360.934 220.838L359.41 219.352L360.354 218.383L362.905 218.816L364.358 217.324L360.698 216.714L360.162 213.186L358.7 214.686L359.217 217.291L358.281 218.251L355.29 215.337L354.058 216.601L359.703 222.101L360.934 220.838ZM366.95 214.833C368.255 213.494 368.485 211.977 367.567 211.082L367.474 210.992L366.243 212.255L366.327 212.337C366.689 212.69 366.629 213.14 365.898 213.89C365.101 214.707 364.528 214.74 363.846 214.141L367.196 210.704C367.069 210.548 366.976 210.424 366.824 210.276C365.502 208.987 363.882 209.2 362.536 210.581C361.181 211.971 361.104 213.752 362.452 215.066C363.952 216.527 365.579 216.24 366.95 214.833ZM363.497 211.567C364.219 210.826 364.792 210.727 365.381 211.235L363.197 213.476C362.707 212.883 362.766 212.317 363.497 211.567ZM373.933 207.498L369.426 203.106L371.471 201.008L370.333 199.9L365.013 205.359L366.151 206.467L368.195 204.37L372.702 208.762L373.933 207.498ZM377.651 203.684L375.536 201.623C374.828 200.933 374.738 200.336 375.567 199.485C376.339 198.693 376.887 198.636 377.594 199.325L379.802 201.476L381.033 200.213L378.447 197.692C377.47 196.74 376.186 196.574 375.078 197.711C374.027 198.789 374.2 199.927 374.785 200.759L374.719 200.827L372.006 198.183L370.775 199.447L376.419 204.947L377.651 203.684ZM383.923 197.416C385.228 196.077 385.458 194.56 384.54 193.665L384.447 193.574L383.216 194.838L383.3 194.92C383.662 195.273 383.601 195.723 382.871 196.473C382.074 197.29 381.501 197.323 380.819 196.724L384.169 193.287C384.042 193.13 383.949 193.007 383.797 192.859C382.475 191.57 380.855 191.782 379.509 193.164C378.154 194.554 378.077 196.335 379.425 197.649C380.925 199.11 382.552 198.823 383.923 197.416ZM380.47 194.15C381.192 193.409 381.765 193.31 382.354 193.818L380.17 196.059C379.68 195.466 379.739 194.9 380.47 194.15ZM391.276 189.702C392.507 188.438 392.475 187.257 391.515 186.322C390.757 185.583 389.742 185.579 388.648 186.55L388.572 186.476C389.424 185.467 389.28 184.604 388.581 183.922C387.696 183.06 386.6 183.207 385.475 184.362L382.175 187.748L387.819 193.249L391.276 189.702ZM384.544 187.593L386.457 185.63C386.916 185.158 387.282 185.12 387.669 185.498C388.057 185.875 388.028 186.225 387.577 186.689L385.647 188.668L384.544 187.593ZM386.692 189.686L388.769 187.555C389.27 187.041 389.635 186.986 390.082 187.422C390.537 187.865 390.492 188.231 389.991 188.745L387.914 190.877L386.692 189.686ZM395.805 185.223C397.11 183.884 397.34 182.367 396.422 181.472L396.329 181.382L395.097 182.645L395.182 182.727C395.544 183.08 395.483 183.53 394.753 184.28C393.956 185.097 393.383 185.13 392.701 184.531L396.051 181.094C395.924 180.938 395.831 180.814 395.679 180.666C394.356 179.377 392.737 179.59 391.391 180.971C390.036 182.361 389.959 184.143 391.307 185.456C392.807 186.917 394.434 186.63 395.805 185.223ZM392.352 181.957C393.074 181.216 393.647 181.117 394.236 181.625L392.052 183.866C391.562 183.273 391.621 182.707 392.352 181.957ZM400.621 180.281C401.893 178.976 402.134 177.683 401.342 176.911C400.643 176.23 399.853 176.282 398.627 177.287L397.639 178.082C397.03 178.572 396.822 178.6 396.603 178.387C396.334 178.124 396.38 177.857 396.996 177.225C397.751 176.45 398.092 176.454 398.438 176.791L398.488 176.84L399.72 175.576L399.694 175.552C398.666 174.55 397.381 174.825 396.034 176.206C394.622 177.655 394.596 178.862 395.338 179.584C396.045 180.274 396.884 180.172 397.798 179.419L399.099 178.371C399.65 177.94 399.841 177.879 400.077 178.109C400.329 178.355 400.283 178.622 399.626 179.296C398.928 180.012 398.597 180.149 398.218 179.78L398.142 179.706L396.911 180.97L396.936 180.994C397.914 181.947 399.233 181.705 400.621 180.281ZM405.967 174.626L404.83 173.518L404.091 174.276C403.656 174.723 403.39 174.776 402.969 174.365L401.461 172.896L402.791 171.531L401.747 170.513L400.417 171.878L399.599 171.081L398.368 172.345L399.185 173.141L398.536 173.807L399.581 174.825L400.23 174.159L401.881 175.769C402.942 176.803 403.989 176.656 404.949 175.671L405.967 174.626ZM408.927 171.589L406.821 169.537L410.121 166.15L408.992 165.05L405.692 168.437L404.42 167.197L407.843 163.684L406.706 162.575L402.051 167.352L407.695 172.853L408.927 171.589ZM409.456 161.743L408.461 160.774L407.23 162.037L408.224 163.006L409.456 161.743ZM414.106 166.274L409.885 162.161L408.654 163.425L412.875 167.538L414.106 166.274ZM415.982 164.349L413.851 162.272C413.135 161.574 413.094 160.976 413.873 160.176C414.629 159.4 415.186 159.402 415.86 160.058L418.067 162.209L419.299 160.946L416.67 158.384C415.735 157.473 414.46 157.298 413.335 158.452C412.26 159.556 412.441 160.718 413.042 161.517L412.968 161.593L411.671 160.329L410.53 161.5L414.751 165.613L415.982 164.349ZM421.27 159.091C422.182 158.156 422.36 157.18 421.892 156.346L421.958 156.279L422.927 157.223L424.076 156.043L421.599 153.63C420.496 152.554 419.122 152.514 417.751 153.921C416.397 155.311 416.267 156.893 417.312 157.911L417.337 157.936L418.577 156.664L418.543 156.631C418.063 156.163 418.149 155.737 418.773 155.097C419.43 154.423 419.82 154.327 420.367 154.86L420.527 155.016L418.948 157.008C418.162 158 418.098 158.841 418.721 159.448C419.429 160.138 420.384 160.001 421.27 159.091ZM419.877 158.094C419.674 157.897 419.722 157.68 419.992 157.352L421.252 155.722C421.817 156.339 421.568 156.999 420.73 157.859C420.369 158.229 420.104 158.316 419.877 158.094ZM425.932 154.139L423.8 152.062C423.084 151.364 423.043 150.766 423.823 149.966C424.578 149.19 425.136 149.192 425.81 149.848L428.017 151.999L429.249 150.736L426.62 148.174C425.685 147.263 424.41 147.088 423.285 148.242C422.21 149.346 422.391 150.508 422.992 151.307L422.918 151.383L421.621 150.119L420.479 151.29L424.7 155.403L425.932 154.139ZM432.148 147.929C433.47 146.573 433.64 144.932 432.553 143.873L432.435 143.758L431.212 145.013L431.279 145.079C431.818 145.604 431.626 146.189 430.986 146.846C430.255 147.596 429.641 147.67 428.865 146.915C428.082 146.151 428.141 145.535 428.871 144.785C429.512 144.128 430.091 143.921 430.63 144.446L430.698 144.512L431.921 143.257L431.803 143.142C430.708 142.075 429.08 142.295 427.759 143.652C426.346 145.101 426.294 146.857 427.642 148.17C428.973 149.467 430.736 149.378 432.148 147.929ZM431.399 139.225L430.405 138.256L429.174 139.52L430.168 140.488L431.399 139.225ZM436.05 143.756L431.829 139.643L430.597 140.907L434.818 145.02L436.05 143.756ZM438.043 141.88C438.954 140.944 439.133 139.969 438.665 139.135L438.73 139.067L439.699 140.011L440.849 138.832L438.372 136.418C437.268 135.343 435.895 135.302 434.524 136.709C433.169 138.099 433.04 139.682 434.085 140.7L434.11 140.724L435.35 139.452L435.316 139.419C434.836 138.951 434.922 138.526 435.546 137.886C436.202 137.212 436.592 137.115 437.14 137.649L437.3 137.805L435.72 139.797C434.934 140.788 434.87 141.629 435.494 142.237C436.201 142.927 437.156 142.79 438.043 141.88ZM436.649 140.883C436.447 140.686 436.494 140.469 436.764 140.141L438.024 138.511C438.59 139.127 438.34 139.788 437.503 140.647C437.142 141.018 436.877 141.104 436.649 140.883ZM442.704 136.928L437.06 131.427L435.828 132.691L441.473 138.191L442.704 136.928ZM447.333 132.178C449.098 130.367 449.162 128.195 447.392 126.47C445.623 124.746 443.454 124.866 441.688 126.677L439.037 129.398L444.681 134.899L447.333 132.178ZM442.826 127.786C443.942 126.64 444.722 126.497 446.079 127.818C447.435 129.14 447.312 129.924 446.196 131.07L444.775 132.527L441.405 129.243L442.826 127.786ZM453.017 126.514C454.322 125.174 454.552 123.657 453.634 122.762L453.541 122.672L452.31 123.936L452.394 124.018C452.756 124.371 452.696 124.821 451.965 125.571C451.169 126.388 450.595 126.42 449.913 125.822L453.263 122.384C453.136 122.228 453.043 122.104 452.892 121.957C451.569 120.668 449.949 120.88 448.603 122.262C447.248 123.652 447.172 125.433 448.52 126.746C450.019 128.208 451.646 127.921 453.017 126.514ZM449.564 123.247C450.287 122.506 450.859 122.407 451.448 122.915L449.264 125.156C448.774 124.564 448.833 123.997 449.564 123.247ZM457.948 121.454C459.27 120.097 459.44 118.456 458.353 117.397L458.235 117.282L457.012 118.538L457.079 118.603C457.618 119.129 457.426 119.714 456.786 120.371C456.055 121.12 455.441 121.195 454.666 120.44C453.882 119.676 453.941 119.06 454.671 118.31C455.312 117.653 455.891 117.446 456.43 117.971L456.498 118.037L457.721 116.782L457.603 116.667C456.508 115.599 454.88 115.82 453.559 117.176C452.146 118.625 452.094 120.381 453.442 121.695C454.773 122.992 456.536 122.903 457.948 121.454ZM457.199 112.749L456.205 111.781L454.974 113.044L455.968 114.013L457.199 112.749ZM461.85 117.281L457.629 113.168L456.398 114.432L460.618 118.545L461.85 117.281ZM464.656 114.57C465.928 113.264 466.169 111.972 465.378 111.2C464.678 110.519 463.889 110.571 462.662 111.576L461.674 112.371C461.065 112.861 460.857 112.889 460.638 112.676C460.369 112.413 460.415 112.146 461.031 111.514C461.786 110.739 462.127 110.743 462.473 111.08L462.523 111.129L463.755 109.865L463.73 109.841C462.702 108.839 461.416 109.114 460.069 110.495C458.657 111.944 458.631 113.151 459.373 113.873C460.08 114.563 460.919 114.461 461.833 113.708L463.134 112.66C463.686 112.229 463.876 112.168 464.112 112.398C464.365 112.644 464.318 112.911 463.661 113.585C462.964 114.301 462.633 114.438 462.254 114.069L462.178 113.995L460.946 115.259L460.971 115.283C461.949 116.236 463.268 115.994 464.656 114.57ZM463.685 106.093L462.691 105.125L461.46 106.388L462.454 107.357L463.685 106.093ZM468.336 110.625L464.115 106.512L462.884 107.776L467.104 111.889L468.336 110.625ZM471.257 107.797C472.661 106.356 472.745 104.55 471.414 103.252C470.066 101.939 468.271 102.079 466.868 103.519C465.464 104.96 465.37 106.758 466.718 108.071C468.049 109.369 469.853 109.237 471.257 107.797ZM470.136 106.705C469.299 107.564 468.683 107.539 467.942 106.816C467.2 106.094 467.142 105.462 467.98 104.603C468.809 103.752 469.45 103.785 470.191 104.508C470.932 105.23 470.966 105.854 470.136 106.705ZM475.255 103.525L473.124 101.448C472.407 100.75 472.366 100.152 473.146 99.3515C473.902 98.5764 474.459 98.5775 475.133 99.2343L477.34 101.385L478.572 100.122L475.943 97.5601C475.008 96.6488 473.733 96.474 472.608 97.6281C471.533 98.7318 471.714 99.894 472.315 100.693L472.241 100.769L470.944 99.5047L469.803 100.676L474.023 104.789L475.255 103.525ZM481.356 97.4329C482.629 96.1271 482.87 94.8346 482.078 94.0629C481.379 93.3815 480.589 93.4333 479.363 94.439L478.375 95.2337C477.765 95.7241 477.558 95.7517 477.339 95.5383C477.069 95.2756 477.116 95.0088 477.731 94.3769C478.487 93.6018 478.828 93.6057 479.173 93.9423L479.224 93.9916L480.455 92.7279L480.43 92.7033C479.402 91.7017 478.116 91.9762 476.77 93.3578C475.358 94.8069 475.332 96.0134 476.073 96.7359C476.781 97.4255 477.62 97.3232 478.533 96.571L479.834 95.5227C480.386 95.0913 480.576 95.0306 480.812 95.2605C481.065 95.5068 481.019 95.7736 480.362 96.4475C479.664 97.1636 479.333 97.301 478.954 96.9316L478.878 96.8577L477.647 98.1214L477.672 98.146C478.649 99.0984 479.969 98.8567 481.356 97.4329Z" fill="black"/>
<path d="M56.6392 250.846L521.348 3.75576C525.249 1.6815 530.093 3.16246 532.167 7.06357L558.192 56.0089C560.266 59.91 558.785 64.754 554.884 66.8283L90.1755 313.918L56.6392 250.846Z" fill="black"/>
<g clip-path="url(#clip0_101_98)">
<path d="M344.8 135.473L343.358 136.24C342.88 136.494 342.698 137.087 342.952 137.565C343.206 138.043 343.8 138.225 344.278 137.971L344.855 137.664C345.333 137.41 345.927 137.591 346.181 138.069C346.435 138.547 346.253 139.141 345.775 139.395L344.333 140.162M343.339 135.509L343.646 136.086M345.487 139.548L345.794 140.125M348.029 135.976L348.034 135.973M341.104 139.658L341.11 139.655M337.63 138.693L339.962 143.078C340.306 143.724 340.478 144.048 340.735 144.228C340.961 144.386 341.231 144.469 341.507 144.464C341.821 144.458 342.144 144.286 342.79 143.943L350.638 139.77C351.284 139.426 351.607 139.255 351.787 138.998C351.946 138.772 352.028 138.501 352.024 138.225C352.018 137.911 351.846 137.588 351.503 136.942L349.171 132.556C348.827 131.91 348.655 131.587 348.398 131.407C348.172 131.249 347.902 131.166 347.626 131.171C347.312 131.176 346.989 131.348 346.343 131.692L338.495 135.864C337.849 136.208 337.526 136.38 337.346 136.637C337.187 136.863 337.105 137.133 337.109 137.409C337.115 137.723 337.287 138.046 337.63 138.693ZM348.317 135.823C348.402 135.982 348.341 136.18 348.182 136.265C348.023 136.35 347.825 136.289 347.74 136.13C347.655 135.97 347.716 135.773 347.875 135.688C348.035 135.603 348.232 135.664 348.317 135.823ZM341.393 139.505C341.478 139.664 341.417 139.862 341.258 139.947C341.098 140.031 340.901 139.971 340.816 139.812C340.731 139.652 340.792 139.454 340.951 139.37C341.11 139.285 341.308 139.345 341.393 139.505Z" stroke="#FF5555" stroke-width="1.30704" stroke-linecap="round" stroke-linejoin="round"/>
</g>
<circle cx="344.567" cy="137.817" r="15.3578" transform="rotate(-28 344.567 137.817)" stroke="#FF5555" stroke-width="0.653521"/>
<path d="M367.134 119.817L365.753 117.221L369.928 115.001L369.188 113.609L365.013 115.829L364.179 114.26L368.51 111.958L367.765 110.555L361.876 113.687L365.576 120.646L367.134 119.817ZM370.638 110.6L369.986 109.374L368.428 110.203L369.08 111.428L370.638 110.6ZM373.686 116.333L370.919 111.13L369.361 111.958L372.128 117.162L373.686 116.333ZM376.059 115.071L374.662 112.443C374.193 111.561 374.336 110.978 375.323 110.454C376.278 109.945 376.809 110.116 377.251 110.947L378.698 113.669L380.256 112.84L378.533 109.6C377.92 108.447 376.758 107.892 375.336 108.648C373.975 109.372 373.794 110.534 374.122 111.478L374.029 111.528L373.178 109.928L371.735 110.696L374.502 115.9L376.059 115.071ZM382.699 111.674C383.851 111.061 384.319 110.187 384.127 109.25L384.21 109.205L384.845 110.4L386.299 109.627L384.676 106.573C383.952 105.212 382.657 104.755 380.922 105.678C379.208 106.589 378.603 108.057 379.288 109.344L379.305 109.376L380.873 108.542L380.851 108.5C380.536 107.908 380.748 107.529 381.537 107.109C382.368 106.668 382.768 106.694 383.127 107.37L383.232 107.567L381.121 108.983C380.07 109.688 379.753 110.469 380.162 111.238C380.626 112.111 381.577 112.271 382.699 111.674ZM381.675 110.3C381.542 110.051 381.653 109.859 382.011 109.629L383.707 108.46C384.058 109.22 383.619 109.773 382.56 110.336C382.103 110.579 381.824 110.581 381.675 110.3ZM388.647 108.378L387.25 105.751C386.78 104.868 386.924 104.285 387.91 103.761C388.866 103.253 389.396 103.423 389.838 104.254L391.285 106.976L392.843 106.147L391.12 102.907C390.507 101.754 389.346 101.199 387.923 101.955C386.562 102.679 386.381 103.841 386.71 104.785L386.616 104.835L385.766 103.235L384.322 104.003L387.089 109.207L388.647 108.378ZM396.46 104.358C398.132 103.468 398.794 101.957 398.082 100.617L398.004 100.472L396.457 101.295L396.501 101.378C396.854 102.043 396.493 102.541 395.683 102.972C394.759 103.463 394.15 103.347 393.642 102.392C393.129 101.426 393.372 100.856 394.297 100.365C395.107 99.9341 395.722 99.9135 396.076 100.578L396.12 100.661L397.667 99.8384L397.59 99.693C396.872 98.3428 395.255 98.057 393.582 98.9462C391.796 99.8961 391.211 101.553 392.095 103.214C392.967 104.855 394.673 105.307 396.46 104.358ZM402.708 101.035C404.359 100.157 405.04 98.7826 404.438 97.6505L404.377 97.5362L402.82 98.3646L402.875 98.4685C403.112 98.9151 402.917 99.3252 401.993 99.8167C400.985 100.352 400.429 100.208 399.962 99.4308L404.2 97.1776C404.127 96.99 404.076 96.8439 403.977 96.6569C403.11 95.0263 401.502 94.735 399.799 95.6407C398.085 96.5519 397.469 98.225 398.353 99.8868C399.336 101.736 400.973 101.958 402.708 101.035ZM400.414 96.8725C401.328 96.3865 401.904 96.4668 402.31 97.1302L399.547 98.5992C399.261 97.8854 399.49 97.364 400.414 96.8725Z" fill="white"/>
<path d="M375.392 136.151L373.122 131.882L372.545 130.897L372.628 130.852L373.589 131.633L377.56 134.465L378.91 133.747L378.783 128.872L378.673 127.638L378.756 127.594L379.25 128.624L381.52 132.892L382.641 132.296L378.941 125.337L377.415 126.149L377.573 131.234L377.728 133.003L377.645 133.047L376.244 131.941L372.097 128.976L370.57 129.788L374.27 136.747L375.392 136.151ZM386.376 130.444C388.1 129.527 388.673 127.823 387.828 126.234C386.972 124.624 385.245 124.157 383.521 125.074C381.807 125.985 381.229 127.678 382.085 129.288C382.93 130.877 384.662 131.355 386.376 130.444ZM385.846 129.446C384.6 130.109 383.765 129.793 383.186 128.703C382.6 127.602 382.799 126.723 384.046 126.06C385.302 125.392 386.142 125.719 386.727 126.819C387.307 127.91 387.103 128.778 385.846 129.446ZM392.508 127.183C393.962 126.41 394.614 125.331 394.1 124.365C393.647 123.513 392.866 123.396 391.557 123.892L390.274 124.361C389.44 124.671 389.155 124.636 388.94 124.231C388.68 123.743 388.902 123.358 389.847 122.856C390.99 122.248 391.473 122.405 391.798 123.017L391.832 123.08L392.943 122.489L392.926 122.458C392.275 121.232 390.982 121.106 389.404 121.946C387.814 122.791 387.336 123.871 387.817 124.775C388.275 125.637 389.088 125.737 390.131 125.343L391.643 124.779C392.435 124.491 392.756 124.493 392.983 124.919C393.226 125.376 393.035 125.744 392.028 126.28C390.947 126.854 390.426 126.851 390.067 126.176L390.023 126.093L388.901 126.689L388.918 126.721C389.553 127.915 390.846 128.067 392.508 127.183ZM399.058 123.567L398.522 122.56L397.587 123.057C396.943 123.399 396.564 123.388 396.227 122.754L394.941 120.334L396.81 119.34L396.313 118.405L394.443 119.399L393.842 118.267L392.73 118.858L393.332 119.99L392.46 120.454L392.957 121.389L393.829 120.925L395.149 123.407C395.817 124.664 396.762 124.788 397.874 124.197L399.058 123.567ZM402.656 121.654L401.541 119.556L403.826 118.341C405.373 117.518 405.958 116.062 405.14 114.524C404.317 112.977 402.789 112.657 401.241 113.48L397.834 115.292L401.534 122.25L402.656 121.654ZM401.673 114.543C402.722 113.985 403.472 114.093 404.019 115.121C404.565 116.149 404.235 116.831 403.186 117.389L401.005 118.548L399.492 115.703L401.673 114.543ZM410.912 117.398C412.636 116.481 413.209 114.777 412.364 113.188C411.508 111.578 409.781 111.111 408.057 112.028C406.343 112.939 405.765 114.632 406.621 116.242C407.466 117.831 409.198 118.309 410.912 117.398ZM410.382 116.4C409.136 117.063 408.301 116.747 407.722 115.657C407.136 114.556 407.335 113.677 408.582 113.014C409.838 112.346 410.678 112.672 411.263 113.773C411.843 114.864 411.639 115.732 410.382 116.4ZM416.609 116.5L414.897 113.281L414.938 113.258C415.648 114.093 416.722 114.308 417.885 113.69C419.495 112.834 419.804 111.284 418.953 109.685C418.103 108.085 416.619 107.475 415.02 108.326C413.805 108.972 413.387 109.94 413.687 111.006L413.594 111.056L412.831 109.622L411.803 110.169L415.487 117.097L416.609 116.5ZM414.344 112.242L414.295 112.148C413.704 111.037 414.06 110.155 415.213 109.542C416.294 108.967 417.169 109.035 417.831 110.281C418.489 111.517 418.071 112.285 416.96 112.876C415.859 113.462 414.908 113.301 414.344 112.242ZM423.306 110.808C424.635 110.101 424.879 108.906 424.581 107.945L424.643 107.912L425.494 109.511L426.522 108.964L423.777 103.802L422.666 104.393L424.025 106.948C424.621 108.07 424.401 108.933 423.258 109.541C422.167 110.121 421.461 109.87 420.948 108.904L419.457 106.1L418.345 106.691L419.996 109.796C420.632 110.991 421.851 111.581 423.306 110.808ZM428.663 107.826L424.963 100.867L423.841 101.464L427.541 108.422L428.663 107.826ZM431.273 106.571C432.447 105.947 432.991 104.992 432.797 103.976L432.87 103.937L433.555 105.225L434.583 104.678L432.915 101.541C432.258 100.305 431.046 99.8043 429.405 100.677C427.764 101.549 427.257 102.951 427.881 104.125L427.903 104.167L429.014 103.576L428.992 103.534C428.589 102.776 428.891 102.216 429.846 101.708C430.833 101.183 431.367 101.285 431.82 102.137L431.98 102.438L429.765 103.936C428.808 104.591 428.385 105.349 428.81 106.149C429.263 107.001 430.203 107.14 431.273 106.571ZM429.893 105.48C429.678 105.075 429.887 104.791 430.43 104.409L432.334 103.103C432.875 104.121 432.317 104.977 431.144 105.601C430.5 105.943 430.114 105.895 429.893 105.48ZM436.706 103.549L435.165 100.651C434.674 99.7271 434.778 99.0456 435.661 98.5762C436.429 98.1675 436.923 98.3446 437.315 99.082L437.558 99.539L438.67 98.9481L438.311 98.273C437.792 97.2967 436.835 96.726 435.662 97.35C434.602 97.9133 434.395 98.8763 434.681 99.79L434.608 99.8287L433.868 98.4369L432.84 98.9836L435.585 104.146L436.706 103.549ZM443.351 100.016L443.19 97.7838L446.867 95.8288L448.627 97.2108L449.894 96.5371L443.089 91.2294L441.51 92.0688L442.104 100.679L443.351 100.016ZM442.919 93.9175L442.8 92.7154L442.883 92.6712L443.812 93.4425L445.884 95.0588L443.101 96.5388L442.919 93.9175ZM453.076 94.9786C454.623 94.1558 455.292 92.6813 454.607 91.3934L454.546 91.2792L453.435 91.8701L453.473 91.9428C453.899 92.7426 453.527 93.4465 452.519 93.9822C451.356 94.6007 450.539 94.316 449.948 93.2046C449.346 92.0725 449.572 91.2459 450.736 90.6274C451.743 90.0917 452.535 90.1771 452.96 90.9769L452.993 91.0392L454.104 90.4483L454.049 90.3444C453.364 89.0565 451.768 88.786 450.221 89.6088C448.517 90.5145 447.98 92.1856 448.836 93.7955C449.681 95.3847 451.372 95.8843 453.076 94.9786ZM459.192 91.7266C460.74 90.9037 461.408 89.4293 460.723 88.1414L460.662 88.0271L459.551 88.618L459.59 88.6907C460.015 89.4905 459.643 90.1944 458.636 90.7301C457.472 91.3487 456.655 91.0639 456.064 89.9526C455.462 88.8204 455.689 87.9938 456.852 87.3753C457.859 86.8396 458.651 86.925 459.076 87.7248L459.109 87.7871L460.221 87.1962L460.165 87.0923C459.481 85.8044 457.885 85.5339 456.337 86.3568C454.634 87.2625 454.097 88.9336 454.953 90.5435C455.798 92.1326 457.489 92.6323 459.192 91.7266ZM465.34 88.4579C467.064 87.5412 467.637 85.8376 466.792 84.2485C465.936 82.6386 464.209 82.1714 462.484 83.0881C460.771 83.9994 460.192 85.6926 461.048 87.3025C461.893 88.8916 463.626 89.3692 465.34 88.4579ZM464.809 87.4608C463.563 88.1235 462.729 87.8076 462.149 86.7171C461.564 85.6161 461.763 84.7376 463.009 84.0749C464.266 83.4066 465.105 83.7329 465.691 84.8339C466.271 85.9245 466.066 86.7926 464.809 87.4608ZM471.181 85.3522C472.51 84.6453 472.754 83.4499 472.456 82.4891L472.518 82.4559L473.369 84.0554L474.397 83.5087L471.652 78.3466L470.541 78.9376L471.9 81.4926C472.496 82.6144 472.276 83.4777 471.133 84.0851C470.042 84.665 469.336 84.4143 468.823 83.4484L467.332 80.644L466.22 81.2349L467.872 84.3405C468.507 85.5349 469.726 86.1253 471.181 85.3522ZM476.538 82.3704L475.179 79.8153C474.583 78.6936 474.783 77.8414 475.915 77.2394C476.985 76.6706 477.68 76.9268 478.194 77.8927L479.685 80.6971L480.807 80.1006L479.156 76.9951C478.52 75.8006 477.301 75.2102 475.867 75.9723C474.559 76.6682 474.315 77.8636 474.623 78.8189L474.55 78.8576L473.7 77.258L472.671 77.8048L475.416 82.9668L476.538 82.3704ZM485.192 77.7688L484.657 76.7613L483.722 77.2584C483.078 77.6008 482.699 77.5892 482.362 76.9556L481.075 74.5356L482.945 73.5415L482.448 72.6067L480.578 73.6008L479.976 72.4687L478.865 73.0596L479.467 74.1917L478.594 74.6556L479.091 75.5904L479.964 75.1265L481.284 77.6089C481.952 78.8656 482.897 78.9893 484.008 78.3984L485.192 77.7688ZM483.951 71.0348L483.316 69.8404L482.194 70.4368L482.829 71.6313L483.951 71.0348ZM487.016 76.7993L484.271 71.6372L483.149 72.2337L485.894 77.3957L487.016 76.7993ZM489.176 75.6506L487.818 73.0955C487.221 71.9738 487.421 71.1215 488.553 70.5195C489.623 69.9507 490.319 70.2069 490.832 71.1729L492.323 73.9772L493.445 73.3808L491.794 70.2752C491.159 69.0808 489.939 68.4904 488.505 69.2525C487.197 69.9483 486.953 71.1437 487.261 72.099L487.188 72.1377L486.338 70.5382L485.31 71.0849L488.054 76.247L489.176 75.6506ZM496.439 71.1891C497.613 70.565 498.011 69.6341 497.784 68.7557L497.856 68.7171L498.53 69.9842C499.143 71.1371 498.888 71.6855 497.715 72.3096C496.614 72.895 496.028 72.8465 495.631 72.0987L494.519 72.6896C495.182 73.9359 496.623 74.0893 498.149 73.2775C499.842 72.3773 500.531 71.0655 499.608 69.331L497.184 64.7713L496.156 65.3181L496.84 66.606L496.778 66.6391C496.111 65.8349 495.041 65.7775 493.961 66.3519C492.392 67.1858 491.95 68.6598 492.713 70.0931C493.475 71.5264 494.902 72.0064 496.439 71.1891ZM493.845 69.4911C493.281 68.4317 493.722 67.7313 494.802 67.157C495.892 66.5771 496.774 66.6813 497.238 67.5538L497.315 67.6992C497.801 68.6132 497.432 69.4223 496.289 70.0298C495.23 70.5931 494.408 70.5506 493.845 69.4911ZM503.469 68.0511L503.307 65.8187L506.984 63.8637L508.745 65.2457L510.012 64.5719L503.206 59.2643L501.628 60.1037L502.222 68.7139L503.469 68.0511ZM503.037 61.9523L502.917 60.7502L503 60.706L503.93 61.4774L506.002 63.0937L503.218 64.5737L503.037 61.9523ZM512.592 65.4651L510.88 62.2453L510.921 62.2232C511.632 63.0579 512.705 63.2731 513.869 62.6545C515.479 61.7985 515.787 60.2489 514.937 58.6494C514.086 57.0499 512.603 56.4398 511.003 57.2903C509.788 57.9364 509.37 58.9046 509.67 59.9706L509.577 60.0203L508.815 58.587L507.787 59.1337L511.47 66.0615L512.592 65.4651ZM510.328 61.2066L510.278 61.1131C509.687 60.0018 510.044 59.1193 511.197 58.5063C512.277 57.9319 513.152 57.9995 513.815 59.2458C514.472 60.4818 514.055 61.2501 512.943 61.841C511.842 62.4264 510.891 62.266 510.328 61.2066ZM519.144 61.9811L517.432 58.7613L517.474 58.7392C518.184 59.5739 519.258 59.7891 520.421 59.1706C522.031 58.3146 522.339 56.765 521.489 55.1654C520.639 53.5659 519.155 52.9558 517.556 53.8063C516.34 54.4524 515.923 55.4207 516.223 56.4867L516.129 56.5364L515.367 55.103L514.339 55.6498L518.023 62.5775L519.144 61.9811ZM516.88 57.7226L516.83 57.6292C516.239 56.5178 516.596 55.6353 517.749 55.0223C518.829 54.448 519.705 54.5155 520.367 55.7619C521.024 56.9979 520.607 57.7661 519.496 58.357C518.395 58.9424 517.443 58.7821 516.88 57.7226Z" fill="white"/>
<g clip-path="url(#clip1_101_98)">
<path d="M110.061 264.727C108.149 265.743 105.775 265.017 104.758 263.105L103.053 259.9C102.926 259.661 102.863 259.541 102.847 259.427C102.82 259.236 102.879 259.043 103.008 258.899C103.086 258.813 103.205 258.75 103.444 258.623L108.701 255.828C108.94 255.701 109.059 255.637 109.173 255.621C109.365 255.594 109.558 255.653 109.702 255.783C109.787 255.86 109.851 255.979 109.978 256.218L111.682 259.424C112.699 261.336 111.973 263.71 110.061 264.727ZM110.061 264.727L110.981 266.458M110.148 256.538L111.591 255.771C111.86 255.628 111.994 255.557 112.123 255.545C112.296 255.528 112.468 255.581 112.602 255.691C112.702 255.773 112.774 255.908 112.916 256.177L113.07 256.465C113.355 257.002 113.498 257.27 113.556 257.522C113.713 258.204 113.495 258.919 112.983 259.397C112.794 259.573 112.526 259.715 111.989 260.001M103.224 260.22L101.781 260.987C101.512 261.13 101.378 261.202 101.295 261.302C101.185 261.436 101.132 261.608 101.149 261.78C101.162 261.91 101.233 262.044 101.376 262.313L101.529 262.601C101.815 263.138 101.957 263.406 102.133 263.595C102.611 264.107 103.326 264.326 104.008 264.168C104.26 264.11 104.528 263.968 105.065 263.682M109.58 270.163L114.837 267.368C114.979 267.293 115.033 267.117 114.957 266.975C114.355 265.842 112.948 265.412 111.815 266.014L110.148 266.901C109.015 267.503 108.585 268.91 109.187 270.043C109.262 270.185 109.438 270.239 109.58 270.163Z" stroke="#FF5555" stroke-width="1.30704" stroke-linecap="round" stroke-linejoin="round"/>
</g>
<circle cx="109.141" cy="262.996" r="15.3578" transform="rotate(-28 109.141 262.996)" stroke="#FF5555" stroke-width="0.653521"/>
<path d="M131.427 245.145L131.274 243.254L134.754 241.404L136.226 242.593L138.012 241.643L131.248 236.313L129.025 237.495L129.682 246.072L131.427 245.145ZM130.979 239.667L130.831 238.36L130.945 238.3L131.945 239.153L133.406 240.322L131.131 241.531L130.979 239.667ZM141.204 240.079C142.876 239.19 143.538 237.679 142.826 236.339L142.748 236.194L141.201 237.017L141.245 237.1C141.598 237.765 141.237 238.263 140.427 238.694C139.503 239.185 138.895 239.069 138.387 238.113C137.873 237.147 138.117 236.578 139.041 236.087C139.851 235.656 140.466 235.635 140.82 236.3L140.864 236.383L142.412 235.56L142.334 235.415C141.616 234.065 139.999 233.779 138.327 234.668C136.54 235.618 135.955 237.274 136.839 238.936C137.712 240.577 139.417 241.029 141.204 240.079ZM146.192 237.294L144.805 234.687C144.342 233.815 144.437 233.218 145.486 232.66C146.462 232.141 147.002 232.253 147.466 233.126L148.913 235.847L150.471 235.019L148.775 231.83C148.135 230.625 146.963 230.076 145.561 230.821C144.232 231.528 144.05 232.664 144.353 233.635L144.27 233.68L142.492 230.335L140.934 231.163L144.634 238.122L146.192 237.294ZM149.767 228.039L149.115 226.813L147.557 227.642L148.209 228.867L149.767 228.039ZM152.815 233.772L150.048 228.569L148.49 229.397L151.257 234.601L152.815 233.772ZM156.449 231.974C158.1 231.095 158.781 229.721 158.179 228.589L158.119 228.474L156.561 229.303L156.616 229.407C156.853 229.853 156.658 230.263 155.734 230.755C154.726 231.29 154.17 231.147 153.703 230.369L157.941 228.116C157.868 227.928 157.817 227.782 157.718 227.595C156.851 225.964 155.244 225.673 153.54 226.579C151.826 227.49 151.21 229.163 152.094 230.825C153.077 232.674 154.714 232.896 156.449 231.974ZM154.155 227.811C155.069 227.325 155.645 227.405 156.051 228.068L153.288 229.537C153.002 228.824 153.231 228.302 154.155 227.811ZM163.732 227.967L163.344 221.499L161.641 222.405L162.033 226.926L161.929 226.981L158.411 224.122L156.676 225.045L161.811 228.989L163.732 227.967ZM169.34 225.119C170.992 224.241 171.673 222.866 171.071 221.734L171.01 221.62L169.452 222.448L169.508 222.552C169.745 222.999 169.55 223.409 168.626 223.9C167.618 224.436 167.062 224.292 166.595 223.514L170.833 221.261C170.76 221.073 170.709 220.927 170.609 220.74C169.742 219.11 168.135 218.818 166.432 219.724C164.718 220.635 164.102 222.308 164.986 223.97C165.969 225.819 167.606 226.041 169.34 225.119ZM167.047 220.956C167.961 220.47 168.537 220.55 168.943 221.214L166.18 222.683C165.893 221.969 166.123 221.447 167.047 220.956ZM174.308 222.344L172.911 219.716C172.43 218.813 172.502 218.295 173.447 217.793C174.34 217.318 174.812 217.48 175.271 218.342L176.718 221.063L178.276 220.235L176.879 217.607C176.398 216.703 176.469 216.186 177.414 215.683C178.308 215.208 178.78 215.37 179.238 216.232L180.685 218.953L182.243 218.125L180.52 214.884C179.891 213.7 178.767 213.165 177.427 213.878C176.087 214.59 175.994 215.692 176.339 216.642L176.245 216.691C175.617 215.786 174.612 215.374 173.408 216.015C172.099 216.711 172.01 217.797 172.35 218.736L172.266 218.78L171.427 217.201L169.983 217.969L172.75 223.173L174.308 222.344ZM185.853 216.339C187.505 215.461 188.186 214.086 187.584 212.954L187.523 212.84L185.965 213.668L186.02 213.772C186.258 214.218 186.063 214.629 185.139 215.12C184.131 215.656 183.575 215.512 183.108 214.734L187.346 212.481C187.273 212.293 187.222 212.147 187.122 211.96C186.255 210.33 184.648 210.038 182.945 210.944C181.231 211.855 180.615 213.528 181.499 215.19C182.482 217.039 184.119 217.261 185.853 216.339ZM183.56 212.176C184.474 211.69 185.049 211.77 185.455 212.434L182.693 213.903C182.406 213.189 182.635 212.667 183.56 212.176ZM190.821 213.564L189.424 210.936C188.954 210.054 189.098 209.471 190.084 208.946C191.04 208.438 191.57 208.609 192.012 209.44L193.459 212.161L195.017 211.333L193.294 208.093C192.681 206.94 191.52 206.385 190.097 207.141C188.736 207.865 188.555 209.027 188.884 209.971L188.79 210.021L187.94 208.421L186.496 209.189L189.263 214.393L190.821 213.564ZM199.472 208.965L198.726 207.562L197.791 208.059C197.241 208.352 196.972 208.322 196.696 207.803L195.707 205.944L197.39 205.049L196.705 203.761L195.022 204.656L194.487 203.648L192.929 204.477L193.464 205.484L192.644 205.92L193.329 207.208L194.149 206.772L195.231 208.808C195.927 210.116 196.968 210.296 198.184 209.649L199.472 208.965ZM202.738 207.361C204.348 206.505 204.972 205.347 204.452 204.371C203.994 203.509 203.226 203.318 201.752 203.902L200.568 204.358C199.839 204.639 199.633 204.602 199.489 204.332C199.312 204 199.438 203.76 200.217 203.346C201.172 202.838 201.496 202.945 201.723 203.371L201.756 203.434L203.314 202.605L203.297 202.574C202.623 201.307 201.315 201.176 199.612 202.082C197.825 203.032 197.433 204.173 197.919 205.087C198.383 205.96 199.213 206.118 200.312 205.68L201.871 205.078C202.528 204.835 202.727 204.835 202.882 205.126C203.048 205.438 202.922 205.678 202.091 206.119C201.208 206.589 200.851 206.619 200.603 206.151L200.553 206.058L198.995 206.886L199.012 206.918C199.652 208.122 200.983 208.294 202.738 207.361Z" fill="white"/>
<path d="M142.832 259.805C144.266 259.043 144.679 257.891 144.044 256.696C143.558 255.782 142.634 255.447 141.378 255.942L141.339 255.869C142.332 255.181 142.464 254.325 142.027 253.505C141.442 252.404 140.316 252.216 138.987 252.923L135.092 254.994L138.792 261.953L142.832 259.805ZM136.739 255.411L139.398 253.997C140.177 253.583 140.701 253.691 141.049 254.345C141.396 254.999 141.162 255.511 140.383 255.925L137.755 257.322L136.739 255.411ZM138.247 258.246L141.051 256.755C141.872 256.319 142.453 256.41 142.839 257.137C143.242 257.895 143.003 258.422 142.172 258.864L139.368 260.355L138.247 258.246ZM148.444 256.954C149.981 256.137 150.658 254.805 150.073 253.704L150.023 253.61L148.901 254.207L148.945 254.29C149.271 254.902 149.012 255.493 147.932 256.067C146.738 256.703 145.968 256.432 145.396 255.457L149.779 253.127C149.728 252.954 149.661 252.804 149.561 252.617C148.727 251.048 147.167 250.745 145.568 251.596C143.885 252.49 143.359 254.156 144.215 255.766C145.131 257.49 146.751 257.855 148.444 256.954ZM146.017 252.49C147.118 251.904 147.911 252.069 148.419 253.024L148.43 253.045L145.075 254.829C144.646 253.871 144.874 253.097 146.017 252.49ZM154.394 253.791C155.848 253.018 156.5 251.938 155.986 250.972C155.534 250.121 154.752 250.003 153.443 250.499L152.161 250.968C151.326 251.278 151.041 251.243 150.826 250.838C150.566 250.35 150.788 249.966 151.734 249.463C152.876 248.856 153.359 249.012 153.685 249.625L153.718 249.687L154.829 249.096L154.813 249.065C154.161 247.839 152.868 247.714 151.29 248.553C149.701 249.398 149.222 250.479 149.703 251.382C150.161 252.244 150.974 252.345 152.017 251.95L153.529 251.386C154.321 251.098 154.643 251.101 154.869 251.526C155.112 251.983 154.921 252.351 153.914 252.887C152.834 253.461 152.312 253.459 151.954 252.784L151.909 252.7L150.788 253.297L150.804 253.328C151.439 254.522 152.732 254.674 154.394 253.791ZM160.944 250.175L160.408 249.167L159.473 249.664C158.829 250.007 158.45 249.995 158.113 249.362L156.827 246.942L158.696 245.948L158.199 245.013L156.33 246.007L155.728 244.875L154.616 245.466L155.218 246.598L154.346 247.062L154.843 247.996L155.715 247.533L157.035 250.015C157.703 251.272 158.649 251.395 159.76 250.804L160.944 250.175ZM164.542 248.262L163.057 245.468L167.315 243.203L166.785 242.206L162.527 244.471L161.378 242.31L165.792 239.963L165.256 238.956L159.72 241.899L163.421 248.858L164.542 248.262ZM167.847 239.11L167.212 237.916L166.09 238.512L166.725 239.707L167.847 239.11ZM170.912 244.875L168.167 239.713L167.046 240.309L169.79 245.471L170.912 244.875ZM173.073 243.726L171.714 241.171C171.118 240.049 171.317 239.197 172.449 238.595C173.519 238.026 174.215 238.282 174.729 239.248L176.22 242.053L177.341 241.456L175.69 238.351C175.055 237.156 173.835 236.566 172.402 237.328C171.093 238.024 170.85 239.219 171.158 240.174L171.085 240.213L170.234 238.614L169.206 239.16L171.951 244.322L173.073 243.726ZM179.913 240.222C181.086 239.598 181.631 238.643 181.437 237.627L181.51 237.588L182.194 238.876L183.223 238.329L181.555 235.192C180.898 233.956 179.685 233.455 178.044 234.328C176.403 235.2 175.896 236.602 176.52 237.776L176.542 237.818L177.654 237.227L177.632 237.185C177.228 236.427 177.53 235.867 178.486 235.359C179.472 234.834 180.007 234.936 180.459 235.788L180.62 236.089L178.405 237.587C177.448 238.242 177.025 239 177.45 239.8C177.903 240.652 178.843 240.791 179.913 240.222ZM178.533 239.131C178.317 238.726 178.526 238.441 179.069 238.059L180.973 236.754C181.514 237.772 180.957 238.628 179.783 239.252C179.139 239.594 178.754 239.546 178.533 239.131ZM185.346 237.2L183.987 234.645C183.391 233.523 183.59 232.671 184.722 232.069C185.792 231.5 186.488 231.757 187.002 232.723L188.493 235.527L189.615 234.93L187.963 231.825C187.328 230.63 186.108 230.04 184.675 230.802C183.366 231.498 183.123 232.693 183.431 233.649L183.358 233.687L182.507 232.088L181.479 232.635L184.224 237.797L185.346 237.2ZM193.276 233.117C194.824 232.294 195.492 230.819 194.807 229.531L194.747 229.417L193.635 230.008L193.674 230.081C194.099 230.881 193.727 231.585 192.72 232.12C191.557 232.739 190.739 232.454 190.148 231.343C189.546 230.211 189.773 229.384 190.936 228.765C191.944 228.23 192.735 228.315 193.16 229.115L193.193 229.177L194.305 228.586L194.249 228.482C193.565 227.195 191.969 226.924 190.421 227.747C188.718 228.653 188.181 230.324 189.037 231.934C189.882 233.523 191.573 234.022 193.276 233.117ZM199.382 229.87C200.919 229.053 201.596 227.72 201.011 226.619L200.961 226.526L199.84 227.122L199.884 227.205C200.21 227.818 199.951 228.409 198.871 228.983C197.676 229.618 196.906 229.348 196.335 228.373L200.718 226.043C200.666 225.87 200.599 225.719 200.5 225.532C199.666 223.964 198.106 223.661 196.506 224.511C194.824 225.406 194.297 227.072 195.153 228.682C196.07 230.406 197.689 230.77 199.382 229.87ZM196.955 225.405C198.056 224.82 198.849 224.984 199.357 225.94L199.368 225.961L196.014 227.744C195.584 226.787 195.812 226.013 196.955 225.405ZM205.338 226.57L205.177 224.337L208.854 222.382L210.615 223.764L211.882 223.091L205.076 217.783L203.498 218.622L204.092 227.233L205.338 226.57ZM204.907 220.471L204.787 219.269L204.87 219.225L205.8 219.996L207.872 221.612L205.088 223.092L204.907 220.471ZM214.462 223.984L212.75 220.764L212.791 220.742C213.502 221.577 214.575 221.792 215.739 221.173C217.348 220.317 217.657 218.768 216.807 217.168C215.956 215.569 214.473 214.959 212.873 215.809C211.658 216.455 211.24 217.423 211.54 218.489L211.447 218.539L210.685 217.106L209.657 217.652L213.34 224.58L214.462 223.984ZM212.198 219.725L212.148 219.632C211.557 218.521 211.914 217.638 213.067 217.025C214.147 216.451 215.022 216.518 215.685 217.765C216.342 219.001 215.924 219.769 214.813 220.36C213.712 220.945 212.761 220.785 212.198 219.725ZM221.014 220.5L219.302 217.28L219.344 217.258C220.054 218.093 221.128 218.308 222.291 217.689C223.901 216.833 224.209 215.284 223.359 213.684C222.508 212.085 221.025 211.475 219.425 212.325C218.21 212.971 217.792 213.939 218.093 215.005L217.999 215.055L217.237 213.622L216.209 214.168L219.892 221.096L221.014 220.5ZM218.75 216.241L218.7 216.148C218.109 215.037 218.466 214.154 219.619 213.541C220.699 212.967 221.574 213.034 222.237 214.281C222.894 215.517 222.477 216.285 221.365 216.876C220.265 217.461 219.313 217.301 218.75 216.241ZM230.753 213.19C232.955 212.019 233.638 209.844 232.483 207.674C231.329 205.503 229.145 204.852 226.943 206.023C224.762 207.183 224.069 209.363 225.223 211.534C226.377 213.705 228.572 214.349 230.753 213.19ZM230.179 212.11C228.528 212.988 227.33 212.639 226.407 210.904C225.485 209.17 225.86 207.971 227.512 207.093C229.163 206.215 230.377 206.569 231.299 208.303C232.222 210.038 231.831 211.231 230.179 212.11ZM236.284 210.116L234.925 207.561C234.329 206.439 234.529 205.587 235.661 204.985C236.731 204.416 237.426 204.672 237.94 205.638L239.431 208.443L240.553 207.846L238.902 204.741C238.266 203.546 237.047 202.956 235.613 203.718C234.305 204.414 234.061 205.609 234.369 206.564L234.296 206.603L233.446 205.004L232.417 205.55L235.162 210.712L236.284 210.116ZM244.449 205.774L243.333 203.676L245.619 202.461C247.166 201.639 247.751 200.182 246.933 198.645C246.11 197.097 244.582 196.778 243.034 197.601L239.627 199.412L243.327 206.371L244.449 205.774ZM243.466 198.663C244.515 198.105 245.265 198.213 245.811 199.241C246.358 200.269 246.028 200.951 244.979 201.509L242.798 202.669L241.285 199.823L243.466 198.663ZM251.133 202.22L247.433 195.261L246.311 195.858L250.012 202.817L251.133 202.22ZM253.744 200.966C254.917 200.342 255.462 199.386 255.268 198.37L255.341 198.331L256.025 199.619L257.054 199.072L255.386 195.936C254.729 194.7 253.516 194.199 251.875 195.071C250.234 195.944 249.727 197.346 250.351 198.519L250.373 198.561L251.485 197.97L251.463 197.928C251.06 197.17 251.361 196.61 252.317 196.102C253.303 195.577 253.838 195.68 254.29 196.531L254.451 196.833L252.236 198.33C251.279 198.986 250.856 199.743 251.281 200.543C251.734 201.395 252.674 201.534 253.744 200.966ZM252.364 199.874C252.149 199.469 252.357 199.185 252.9 198.803L254.804 197.497C255.345 198.515 254.788 199.371 253.614 199.995C252.97 200.338 252.585 200.289 252.364 199.874ZM259.825 199.864C260.884 199.301 261.317 198.711 261.251 197.56L260.898 190.407L259.662 191.064L259.899 194.442L260.074 195.948L259.991 195.992L258.825 195.026L256.048 192.986L254.791 193.654L260.08 197.463L260.099 197.799C260.131 198.235 260.011 198.459 259.554 198.702L258.546 199.238L259.087 200.256L259.825 199.864ZM266.688 194.083C268.142 193.31 268.793 192.231 268.28 191.265C267.827 190.413 267.045 190.296 265.737 190.792L264.454 191.261C263.62 191.571 263.335 191.536 263.119 191.131C262.86 190.643 263.082 190.258 264.027 189.756C265.169 189.148 265.652 189.305 265.978 189.917L266.011 189.98L267.123 189.389L267.106 189.358C266.454 188.132 265.162 188.007 263.583 188.846C261.994 189.691 261.516 190.771 261.996 191.675C262.455 192.537 263.268 192.638 264.31 192.243L265.822 191.679C266.615 191.391 266.936 191.393 267.162 191.819C267.405 192.276 267.215 192.644 266.207 193.18C265.127 193.754 264.606 193.751 264.247 193.076L264.203 192.993L263.081 193.589L263.098 193.621C263.733 194.815 265.026 194.967 266.688 194.083ZM273.237 190.467L272.702 189.46L271.767 189.957C271.123 190.299 270.744 190.288 270.407 189.654L269.12 187.234L270.99 186.24L270.493 185.305L268.623 186.299L268.021 185.167L266.91 185.758L267.512 186.89L266.639 187.354L267.136 188.289L268.009 187.825L269.329 190.307C269.997 191.564 270.942 191.688 272.053 191.097L273.237 190.467ZM276.632 188.795C278.356 187.879 278.93 186.175 278.085 184.586C277.229 182.976 275.501 182.509 273.777 183.426C272.063 184.337 271.485 186.03 272.341 187.64C273.186 189.229 274.919 189.707 276.632 188.795ZM276.102 187.798C274.856 188.461 274.022 188.145 273.442 187.055C272.856 185.954 273.055 185.075 274.302 184.412C275.559 183.744 276.398 184.07 276.984 185.171C277.563 186.262 277.359 187.13 276.102 187.798ZM281.39 186.133L279.849 183.235C279.358 182.31 279.462 181.629 280.344 181.16C281.113 180.751 281.607 180.928 281.999 181.665L282.242 182.122L283.353 181.531L282.994 180.856C282.475 179.88 281.519 179.309 280.345 179.933C279.286 180.497 279.078 181.46 279.364 182.373L279.292 182.412L278.552 181.02L277.523 181.567L280.268 186.729L281.39 186.133ZM288.184 182.653C289.721 181.836 290.399 180.503 289.813 179.402L289.763 179.309L288.642 179.905L288.686 179.988C289.012 180.601 288.753 181.192 287.673 181.766C286.478 182.401 285.708 182.131 285.137 181.156L289.52 178.826C289.468 178.653 289.401 178.502 289.302 178.315C288.468 176.747 286.908 176.444 285.308 177.294C283.626 178.189 283.099 179.855 283.955 181.465C284.872 183.189 286.491 183.553 288.184 182.653ZM285.757 178.188C286.858 177.603 287.651 177.767 288.159 178.723L288.171 178.744L284.816 180.527C284.387 179.57 284.614 178.796 285.757 178.188Z" fill="white"/>
<line x1="308.912" y1="136.976" x2="307.498" y2="177.47" stroke="white" stroke-width="0.653522"/>
<path d="M470.679 266.667C473.255 266.667 474.549 265.373 474.549 263.255V258.668H472.784V263.126C472.784 264.467 472.29 264.949 470.679 264.949C469.079 264.949 468.573 264.467 468.573 263.126V258.668H466.809V263.255C466.809 265.373 468.114 266.667 470.679 266.667ZM477.202 260.056V258.668H475.437V260.056H477.202ZM477.202 266.549V260.656H475.437V266.549H477.202ZM480.36 266.549V262.114H482.184V260.656H480.29C480.243 260.079 480.608 259.95 481.384 259.95H482.184V258.668H481.666C479.855 258.668 478.819 259.468 478.631 260.656H477.761V262.114H478.596V266.549H480.36ZM484.531 266.549V263.138C484.531 262.397 484.813 262.032 485.601 262.032C486.319 262.032 486.578 262.314 486.578 262.961V263.573H488.342V262.597C488.342 261.444 487.801 260.538 486.484 260.538C485.296 260.538 484.672 261.267 484.507 262.22H484.402V260.656H482.766V266.549H484.531ZM490.111 268.549C491.593 268.549 492.381 268.208 492.946 266.973L495.863 260.656H493.898L492.781 263.338L492.31 264.738H492.193L491.699 263.349L490.452 260.656H488.452L491.334 266.573C491.216 266.831 491.028 266.949 490.593 266.949H489.146V268.549H490.111ZM499.867 266.549V264.373H502.22C504.043 264.373 505.219 263.326 505.219 261.514C505.219 259.703 504.043 258.668 502.22 258.668H498.103V266.549H499.867ZM502.031 260.256C503.008 260.256 503.467 260.55 503.467 261.514C503.467 262.502 503.008 262.785 502.031 262.785H499.867V260.256H502.031ZM507.61 266.549V263.138C507.61 262.397 507.892 262.032 508.68 262.032C509.398 262.032 509.657 262.314 509.657 262.961V263.573H511.421V262.597C511.421 261.444 510.88 260.538 509.562 260.538C508.374 260.538 507.751 261.267 507.586 262.22H507.48V260.656H505.845V266.549H507.61ZM515.189 266.667C517.059 266.667 518.306 265.773 518.306 264.49V264.361H516.542V264.479C516.542 264.985 516.177 265.255 515.13 265.255C513.989 265.255 513.566 264.867 513.519 263.961H518.318C518.342 263.761 518.365 263.608 518.365 263.396C518.365 261.55 517.083 260.538 515.154 260.538C513.213 260.538 511.884 261.726 511.884 263.608C511.884 265.702 513.225 266.667 515.189 266.667ZM515.119 261.914C516.154 261.914 516.624 262.255 516.671 263.032H513.542C513.625 262.267 514.072 261.914 515.119 261.914ZM520.878 266.549V263.573C520.878 262.55 521.184 262.126 522.254 262.126C523.266 262.126 523.607 262.491 523.607 263.467V266.549H525.372V263.573C525.372 262.55 525.677 262.126 526.748 262.126C527.76 262.126 528.101 262.491 528.101 263.467V266.549H529.865V262.879C529.865 261.538 529.124 260.538 527.607 260.538C526.089 260.538 525.489 261.467 525.348 262.467H525.242C525.113 261.373 524.419 260.538 523.054 260.538C521.572 260.538 520.984 261.456 520.843 262.444H520.749V260.656H519.113V266.549H520.878ZM532.526 260.056V258.668H530.762V260.056H532.526ZM532.526 266.549V260.656H530.762V266.549H532.526ZM535.885 266.667C537.438 266.667 538.155 265.737 538.308 264.749H538.402V266.549H540.049V260.656H538.285V263.644C538.285 264.643 537.873 265.09 536.72 265.09C535.603 265.09 535.203 264.69 535.203 263.738V260.656H533.438V264.326C533.438 265.643 534.226 266.667 535.885 266.667ZM542.716 266.549V263.573C542.716 262.55 543.022 262.126 544.092 262.126C545.104 262.126 545.445 262.491 545.445 263.467V266.549H547.21V263.573C547.21 262.55 547.516 262.126 548.586 262.126C549.598 262.126 549.939 262.491 549.939 263.467V266.549H551.703V262.879C551.703 261.538 550.962 260.538 549.445 260.538C547.927 260.538 547.327 261.467 547.186 262.467H547.08C546.951 261.373 546.257 260.538 544.892 260.538C543.41 260.538 542.822 261.456 542.681 262.444H542.587V260.656H540.952V266.549H542.716Z" fill="black"/>
<path d="M468.049 285.155V282.342H472.336V281.338H468.049V279.163H472.493V278.149H466.92V285.155H468.049ZM474.462 285.155V282.237C474.462 281.307 474.828 280.815 475.717 280.815C476.49 280.815 476.804 281.16 476.804 281.903V282.363H477.923V281.683C477.923 280.7 477.411 279.853 476.229 279.853C475.163 279.853 474.598 280.523 474.441 281.359H474.368V279.958H473.333V285.155H474.462ZM481.246 285.259C482.794 285.259 483.881 284.496 483.881 283.388V283.293H482.752V283.377C482.752 283.994 482.303 284.35 481.215 284.35C480.013 284.35 479.521 283.816 479.479 282.812H483.892C483.923 282.656 483.934 282.509 483.934 282.321C483.934 280.742 482.836 279.853 481.226 279.853C479.532 279.853 478.423 280.941 478.423 282.561C478.423 284.297 479.542 285.259 481.246 285.259ZM481.205 280.742C482.313 280.742 482.867 281.202 482.867 282.164V282.185H479.49C479.552 281.254 480.054 280.742 481.205 280.742ZM487.394 285.259C488.941 285.259 490.029 284.496 490.029 283.388V283.293H488.899V283.377C488.899 283.994 488.45 284.35 487.362 284.35C486.16 284.35 485.668 283.816 485.626 282.812H490.039C490.07 282.656 490.081 282.509 490.081 282.321C490.081 280.742 488.983 279.853 487.373 279.853C485.679 279.853 484.57 280.941 484.57 282.561C484.57 284.297 485.689 285.259 487.394 285.259ZM487.352 280.742C488.46 280.742 489.014 281.202 489.014 282.164V282.185H485.637C485.7 281.254 486.202 280.742 487.352 280.742ZM496.196 285.155V279.163H498.946V278.149H492.316V279.163H495.077V285.155H496.196ZM500.736 285.155V282.237C500.736 281.307 501.102 280.815 501.99 280.815C502.764 280.815 503.078 281.16 503.078 281.903V282.363H504.197V281.683C504.197 280.7 503.684 279.853 502.503 279.853C501.436 279.853 500.872 280.523 500.715 281.359H500.641V279.958H499.606V285.155H500.736ZM506.035 279.351V278.149H504.906V279.351H506.035ZM506.035 285.155V279.958H504.906V285.155H506.035ZM508.608 285.259C509.789 285.259 510.615 284.736 510.887 283.858H510.96V285.155H511.995V281.997C511.995 280.753 511.253 279.853 509.601 279.853C507.949 279.853 506.966 280.742 506.966 281.924V281.965H508.085V281.924C508.085 281.16 508.555 280.847 509.517 280.847C510.511 280.847 510.887 281.15 510.887 282.007V282.311L508.524 282.561C507.499 282.677 506.851 283.095 506.851 283.9C506.851 284.757 507.531 285.259 508.608 285.259ZM507.98 283.827C507.98 283.419 508.263 283.283 508.848 283.21L510.887 282.98C510.887 284.004 510.092 284.444 508.911 284.444C508.263 284.444 507.98 284.245 507.98 283.827ZM514.133 285.155V278.149H513.003V285.155H514.133Z" fill="black"/>
<path d="M59.7244 330.04L58.4157 315.796L88.2862 299.913L99.2698 309.014L119.559 298.226L58.856 249.775L33.5882 263.21L39.9047 340.579L59.7244 330.04ZM55.6128 285.597L54.0082 272.836L55.2293 272.186L65.0061 280.603L73.3642 287.485L56.6443 296.375L55.6128 285.597Z" fill="black"/>
<defs>
<filter id="filter0_f_101_98" x="203.036" y="107.671" width="313.025" height="318.499" filterUnits="userSpaceOnUse" color-interpolation-filters="sRGB">
<feFlood flood-opacity="0" result="BackgroundImageFix"/>
<feBlend mode="normal" in="SourceGraphic" in2="BackgroundImageFix" result="shape"/>
<feGaussianBlur stdDeviation="65.3521" result="effect1_foregroundBlur_101_98"/>
</filter>
<clipPath id="clip0_101_98">
<rect width="15.6845" height="15.6845" fill="white" transform="translate(333.96 134.575) rotate(-28)"/>
</clipPath>
<clipPath id="clip1_101_98">
<rect width="15.6845" height="15.6845" fill="white" transform="translate(98.5345 259.753) rotate(-28)"/>
</clipPath>
</defs>
</svg>
